<svg width="220" height="153" viewBox="0 0 220 153" fill="none" xmlns="http://www.w3.org/2000/svg">
<path fill-rule="evenodd" clip-rule="evenodd" d="M99.5998 10.1256C85.6635 10.1245 72.2047 15.0663 61.7432 24.0258C51.2818 32.9854 44.5351 45.3482 42.7665 58.7996L42.3498 61.9418L39.2769 62.9554C29.9456 66.066 22.0501 72.2954 16.9937 80.5364C11.9374 88.7774 10.0478 98.496 11.6609 107.965C13.274 117.434 18.2851 126.039 25.8037 132.252C33.3223 138.464 42.8612 141.882 52.7248 141.896H167.308C173.005 141.894 178.641 140.756 183.867 138.551C189.094 136.346 193.8 133.122 197.696 129.078C201.592 125.033 204.594 120.255 206.516 115.037C208.439 109.819 209.242 104.273 208.875 98.7409C208.509 93.2092 206.98 87.8094 204.384 82.8752C201.788 77.941 198.18 73.5771 193.783 70.0533C189.385 66.5295 184.292 63.9205 178.817 62.3876C173.343 60.8547 167.604 60.4305 161.954 61.141L156.954 61.7593L156.162 56.9142C153.976 43.8514 147.085 31.9713 136.723 23.3992C126.36 14.8271 113.201 10.122 99.5998 10.1256ZM32.9019 54.4714C35.6058 39.5357 43.5206 25.9644 55.3112 16.0466C67.1019 6.12867 82.0469 0.471127 97.6256 0.0281399C113.204 -0.414847 128.463 4.38383 140.829 13.6148C153.195 22.8458 161.91 35.9442 165.506 50.7008C166.103 50.6805 166.704 50.6703 167.308 50.6703C181.122 50.6703 194.369 56.0099 204.137 65.5144C213.904 75.019 219.391 87.9098 219.391 101.351C219.391 114.793 213.904 127.684 204.137 137.188C194.369 146.693 181.122 152.032 167.308 152.032H52.7248C40.6591 152.04 28.965 147.97 19.64 140.52C10.3151 133.069 3.93783 122.699 1.59757 111.181C-0.742694 99.6634 1.09924 87.7122 6.80874 77.3691C12.5182 67.0259 21.7411 58.9325 32.9019 54.4714Z" fill="#625F5F"/>
<path fill-rule="evenodd" clip-rule="evenodd" d="M99.5996 55.7385C100.981 55.7385 102.306 56.2725 103.282 57.2229C104.259 58.1734 104.808 59.4625 104.808 60.8066V81.079H125.641C127.023 81.079 128.347 81.6129 129.324 82.5634C130.301 83.5138 130.85 84.8029 130.85 86.1471C130.85 87.4912 130.301 88.7803 129.324 89.7308C128.347 90.6812 127.023 91.2152 125.641 91.2152H104.808V111.488C104.808 112.832 104.259 114.121 103.282 115.071C102.306 116.022 100.981 116.556 99.5996 116.556C98.2183 116.556 96.8935 116.022 95.9168 115.071C94.94 114.121 94.3913 112.832 94.3913 111.488V91.2152H73.5579C72.1766 91.2152 70.8518 90.6812 69.8751 89.7308C68.8983 88.7803 68.3496 87.4912 68.3496 86.1471C68.3496 84.8029 68.8983 83.5138 69.8751 82.5634C70.8518 81.6129 72.1766 81.079 73.5579 81.079H94.3913V60.8066C94.3913 59.4625 94.94 58.1734 95.9168 57.2229C96.8935 56.2725 98.2183 55.7385 99.5996 55.7385Z" fill="#625F5F"/>
</svg>
